# Blender v2.74 (sub 0) OBJ File: ''
# www.blender.org
mtllib lobby.mtl
o Cylinder
v 0.000000 0.009900 -2.388250
v -0.737969 0.009900 -2.271226
v -1.403813 0.009900 -1.932094
v -1.932094 0.009900 -1.403813
v -2.271226 0.009900 -0.737969
v -2.388250 0.009900 0.000000
v -2.271226 0.009900 0.737969
v -1.932094 0.009900 1.403813
v -1.403813 0.009900 1.932094
v -0.737969 0.009900 2.271226
v 0.000000 0.009900 2.388250
v 0.737969 0.009900 2.271226
v 1.403813 0.009900 1.932094
v 1.932094 0.009900 1.403813
v 2.271226 0.009900 0.737969
v 2.388250 0.009900 0.000000
v 2.271226 0.009900 -0.737969
v 1.932094 0.009900 -1.403813
v 1.403813 0.009900 -1.932094
v 0.737969 0.009900 -2.271226
v 0.000000 1.196100 -2.388250
v -0.737969 1.196100 -2.271226
v -1.403813 1.196100 -1.932094
v -1.932094 1.196100 -1.403813
v -2.271226 1.196100 -0.737969
v -2.388250 1.196100 0.000000
v -2.271226 1.196100 0.737969
v -1.932094 1.196100 1.403813
v -1.403813 1.196100 1.932094
v -0.737969 1.196100 2.271226
v 0.000000 1.196100 2.388250
v 0.737969 1.196100 2.271226
v 1.403813 1.196100 1.932094
v 1.932094 1.196100 1.403813
v 2.271226 1.196100 0.737969
v 2.388250 1.196100 0.000000
v 2.271226 1.196100 -0.737969
v 1.932094 1.196100 -1.403813
v 1.403813 1.196100 -1.932094
v 0.737969 1.196100 -2.271226
v 0.000000 0.009900 0.000000
v 0.000000 1.196100 0.000000
vt 0.000000 1.000000
vt 0.000000 0.000000
vt 0.050000 0.000000
vt 0.050000 1.000000
vt 0.100000 0.000000
vt 0.100000 1.000000
vt 0.150000 0.000000
vt 0.150000 1.000000
vt 0.200000 0.000000
vt 0.200000 1.000000
vt 0.250000 0.000000
vt 0.250000 1.000000
vt 0.300000 0.000000
vt 0.300000 1.000000
vt 0.350000 0.000000
vt 0.350000 1.000000
vt 0.400000 0.000000
vt 0.400000 1.000000
vt 0.450000 0.000000
vt 0.450000 1.000000
vt 0.500000 0.000000
vt 0.500000 1.000000
vt 0.550000 0.000000
vt 0.550000 1.000000
vt 0.600000 0.000000
vt 0.600000 1.000000
vt 0.650000 0.000000
vt 0.650000 1.000000
vt 0.700000 0.000000
vt 0.700000 1.000000
vt 0.750000 0.000000
vt 0.750000 1.000000
vt 0.800000 0.000000
vt 0.800000 1.000000
vt 0.850000 0.000000
vt 0.850000 1.000000
vt 0.900000 0.000000
vt 0.900000 1.000000
vt 0.950000 0.000000
vt 0.950000 1.000000
vt 1.000000 0.000000
vt 1.000000 1.000000
vn 0.000000 0.000000 1.000000
vn 0.309000 0.000000 0.951100
vn 0.587700 0.000000 0.809100
vn 0.809100 0.000000 0.587700
vn 0.951100 0.000000 0.309000
vn 1.000000 0.000000 0.000000
vn 0.951100 0.000000 -0.309000
vn 0.809100 0.000000 -0.587700
vn 0.587700 0.000000 -0.809100
vn 0.309000 0.000000 -0.951100
vn 0.000000 0.000000 -1.000000
vn -0.309000 0.000000 -0.951100
vn -0.587700 0.000000 -0.809100
vn -0.809100 0.000000 -0.587700
vn -0.951100 0.000000 -0.309000
vn -1.000000 0.000000 0.000000
vn -0.951100 0.000000 0.309000
vn -0.809100 0.000000 0.587700
vn -0.587700 0.000000 0.809100
vn -0.309000 0.000000 0.951100
vn 0.000000 1.000000 0.000000
vn 0.000000 -1.000000 0.000000
usemtl b0b0b0
s 1
f 1/1/1 21/2/1 22/3/2 2/4/2
f 2/4/2 22/3/2 23/5/3 3/6/3
f 3/6/3 23/5/3 24/7/4 4/8/4
f 4/8/4 24/7/4 25/9/5 5/10/5
f 5/10/5 25/9/5 26/11/6 6/12/6
f 6/12/6 26/11/6 27/13/7 7/14/7
f 7/14/7 27/13/7 28/15/8 8/16/8
f 8/16/8 28/15/8 29/17/9 9/18/9
f 9/18/9 29/17/9 30/19/10 10/20/10
f 10/20/10 30/19/10 31/21/11 11/22/11
f 11/22/11 31/21/11 32/23/12 12/24/12
f 12/24/12 32/23/12 33/25/13 13/26/13
f 13/26/13 33/25/13 34/27/14 14/28/14
f 14/28/14 34/27/14 35/29/15 15/30/15
f 15/30/15 35/29/15 36/31/16 16/32/16
f 16/32/16 36/31/16 37/33/17 17/34/17
f 17/34/17 37/33/17 38/35/18 18/36/18
f 18/36/18 38/35/18 39/37/19 19/38/19
f 19/38/19 39/37/19 40/39/20 20/40/20
f 20/40/20 40/39/20 21/41/1 1/42/1
f 1/2/21 2/3/21 41/1/21
f 2/3/21 3/5/21 41/1/21
f 3/5/21 4/7/21 41/1/21
f 4/7/21 5/9/21 41/1/21
f 5/9/21 6/11/21 41/1/21
f 6/11/21 7/13/21 41/1/21
f 7/13/21 8/15/21 41/1/21
f 8/15/21 9/17/21 41/1/21
f 9/17/21 10/19/21 41/1/21
f 10/19/21 11/21/21 41/1/21
f 11/21/21 12/23/21 41/1/21
f 12/23/21 13/25/21 41/1/21
f 13/25/21 14/27/21 41/1/21
f 14/27/21 15/29/21 41/1/21
f 15/29/21 16/31/21 41/1/21
f 16/31/21 17/33/21 41/1/21
f 17/33/21 18/35/21 41/1/21
f 18/35/21 19/37/21 41/1/21
f 19/37/21 20/39/21 41/1/21
f 20/39/21 1/41/21 41/1/21
f 22/4/22 21/1/22 42/2/22
f 23/6/22 22/4/22 42/2/22
f 24/8/22 23/6/22 42/2/22
f 25/10/22 24/8/22 42/2/22
f 26/12/22 25/10/22 42/2/22
f 27/14/22 26/12/22 42/2/22
f 28/16/22 27/14/22 42/2/22
f 29/18/22 28/16/22 42/2/22
f 30/20/22 29/18/22 42/2/22
f 31/22/22 30/20/22 42/2/22
f 32/24/22 31/22/22 42/2/22
f 33/26/22 32/24/22 42/2/22
f 34/28/22 33/26/22 42/2/22
f 35/30/22 34/28/22 42/2/22
f 36/32/22 35/30/22 42/2/22
f 37/34/22 36/32/22 42/2/22
f 38/36/22 37/34/22 42/2/22
f 39/38/22 38/36/22 42/2/22
f 40/40/22 39/38/22 42/2/22
f 21/42/22 40/40/22 42/2/22
